<svg xmlns="http://www.w3.org/2000/svg" width="571" height="571" viewBox="0 0 571 571" version="1.1"><path d="M 274.046 21.445 L 272.846 22.890 273.173 25.093 L 273.500 27.296 275.250 28.393 L 277 29.490 278.750 28.393 L 280.500 27.296 280.827 25.093 L 281.154 22.890 279.954 21.445 L 278.755 20 277 20 L 275.245 20 274.046 21.445 M 318.635 28.073 L 316 30.145 316 32.850 L 316 35.555 317.557 37.777 L 319.113 40 321.834 40 L 324.555 40 326.777 38.443 L 329 36.887 329 33.516 L 329 30.145 326.365 28.073 L 323.730 26 322.500 26 L 321.270 26 318.635 28.073 M 231.635 50.073 L 229 52.145 229 55.073 L 229 58 231 60 L 233 62 235.389 62 L 237.778 62 240.014 60.190 L 242.250 58.379 242.250 55.637 L 242.250 52.895 239.951 50.448 L 237.651 48 235.961 48 L 234.270 48 231.635 50.073 M 186.180 51.642 L 185.262 53.284 185.739 55.109 L 186.216 56.934 188.156 57.549 L 190.096 58.165 191.548 56.960 L 193 55.755 193 54.078 L 193 52.400 191.800 51.200 L 190.600 50 188.850 50 L 187.099 50 186.180 51.642 M 403.400 53.765 L 402.299 54.500 401.150 56.684 L 400 58.869 400 60.934 L 400 63 402 65 L 404 67 406.961 67 L 409.922 67 411.961 64.811 L 414 62.623 414 59.884 L 414 57.145 411.365 55.073 L 408.730 53 406.615 53.015 L 404.500 53.031 403.400 53.765 M 153.557 57.223 L 152 59.445 152 61.612 L 152 63.778 153.844 66.056 L 155.688 68.333 159 68.333 L 162.312 68.333 164.156 66.056 L 166 63.778 166 62.024 L 166 60.270 163.927 57.635 L 161.855 55 158.484 55 L 155.113 55 153.557 57.223 M 366.071 61.868 L 365.007 63.855 365.581 65.350 L 366.155 66.845 367.650 67.419 L 369.145 67.993 371.132 66.929 L 373.120 65.865 372.810 63.183 L 372.500 60.500 369.817 60.190 L 367.135 59.880 366.071 61.868 M 274.557 77.223 L 273 79.445 273 81.723 L 273 84 275 86 L 277 88 279.500 88 L 282 88 284 86 L 286 84 286 81.057 L 286 78.113 283.777 76.557 L 281.555 75 278.834 75 L 276.113 75 274.557 77.223 M 324.557 91.223 L 323 93.445 323 95.723 L 323 98 325 100 L 327 102 328.865 102 L 330.730 102 333.365 99.927 L 336 97.855 336 95.427 L 336 93 334 91 L 332 89 329.057 89 L 326.113 89 324.557 91.223 M 113.537 93.250 L 113.137 94.500 111.497 100.500 L 109.857 106.500 107.420 110.241 L 104.983 113.983 101.241 116.420 L 97.500 118.856 92 120.573 L 86.500 122.289 85.661 123.033 L 84.822 123.778 91.661 125.996 L 98.500 128.214 102.322 130.669 L 106.143 133.123 109.070 139.312 L 111.997 145.500 112.627 150.250 L 113.258 155 113.923 155 L 114.588 155 117.428 146.250 L 120.269 137.500 124.385 133.425 L 128.500 129.349 136 127.024 L 143.500 124.699 144.338 123.961 L 145.177 123.223 136.838 120.475 L 128.500 117.727 124.290 113.388 L 120.080 109.048 117.422 100.524 L 114.764 92 114.351 92 L 113.937 92 113.537 93.250 M 452.493 98.218 L 450.650 104.500 448.916 108 L 447.183 111.500 444.342 114.136 L 441.500 116.772 438.500 118.250 L 435.500 119.729 430.160 121.475 L 424.820 123.220 425.660 123.980 L 426.500 124.740 433.791 126.912 L 441.083 129.083 444.998 132.998 L 448.913 136.913 451.846 146.207 L 454.779 155.500 455.340 154 L 455.901 152.500 457.052 148.017 L 458.203 143.533 460.502 139.017 L 462.802 134.500 465.352 132.122 L 467.902 129.743 475.701 126.991 L 483.500 124.238 483.064 123.369 L 482.628 122.500 475.503 119.749 L 468.378 116.998 465.117 113.810 L 461.856 110.622 460.525 108.048 L 459.194 105.474 457.486 99.487 L 455.779 93.500 455.057 92.718 L 454.336 91.936 452.493 98.218 M 232.607 95.582 L 232 97.164 232 98.547 L 232 99.930 233.928 100.961 L 235.855 101.993 237.389 101.404 L 238.924 100.815 239.545 98.860 L 240.165 96.904 238.960 95.452 L 237.755 94 235.485 94 L 233.214 94 232.607 95.582 M 183 102.709 L 181.500 103.261 179.750 104.785 L 178 106.310 178 109.084 L 178 111.857 179.570 113.427 L 181.140 114.997 183.577 115.609 L 186.015 116.220 188.507 114.587 L 191 112.954 190.985 109.727 L 190.969 106.500 190.235 105.400 L 189.500 104.299 187.316 103.150 L 185.131 102 184.816 102.079 L 184.500 102.158 183 102.709 M 370.174 108.314 L 368 110.629 368 112.860 L 368 115.091 370.455 117.545 L 372.909 120 375 120 L 377.091 120 379.545 117.545 L 382 115.091 382 113 L 382 110.909 379.545 108.455 L 377.091 106 374.720 106 L 372.349 106 370.174 108.314 M 168.667 131.667 L 168 132.333 168 134.544 L 168 136.755 169.436 137.947 L 170.872 139.139 172.936 138.034 L 175 136.930 175 135.165 L 175 133.400 173.800 132.200 L 172.600 131 170.967 131 L 169.333 131 168.667 131.667 M 399.384 135.442 L 398.831 136.883 399.174 138.692 L 399.517 140.500 402.224 140.813 L 404.930 141.126 405.559 138.620 L 406.188 136.114 405.535 135.057 L 404.882 134 402.410 134 L 399.937 134 399.384 135.442 M 275 138.060 L 268.500 138.927 260.500 141.448 L 252.500 143.970 247.500 146.918 L 242.500 149.867 236.778 154.426 L 231.056 158.985 225.751 165.417 L 220.446 171.849 216.745 179.334 L 213.044 186.819 211.099 194.159 L 209.155 201.500 208.535 208 L 207.915 214.500 208.989 221.998 L 210.063 229.497 212.074 236.248 L 214.085 243 284.017 243 L 353.949 243 355.394 240.206 L 356.839 237.411 358.579 230.956 L 360.319 224.500 360.362 213.500 L 360.404 202.500 358.701 196 L 356.998 189.500 352.565 180.500 L 348.131 171.500 342.505 164.704 L 336.879 157.907 330.690 153.345 L 324.500 148.783 317.636 145.321 L 310.771 141.860 303.636 140.053 L 296.500 138.247 289 137.720 L 281.500 137.193 275 138.060 M 37.309 155.174 L 36.245 156.500 32.123 164.335 L 28 172.170 28 173.863 L 28 175.557 36.250 176.719 L 44.500 177.881 49.574 179.427 L 54.648 180.973 60.574 184.952 L 66.500 188.931 70.149 192.059 L 73.798 195.186 84.399 193.447 L 95 191.707 95 190.776 L 95 189.845 84.750 179.567 L 74.500 169.290 67.284 165.051 L 60.068 160.812 52.784 157.992 L 45.500 155.171 41.936 154.509 L 38.372 153.847 37.309 155.174 M 521 156.392 L 514.500 158.667 509 161.453 L 503.500 164.240 497 169.053 L 490.500 173.867 485.412 179.184 L 480.324 184.500 478.162 187.385 L 476 190.270 476 190.935 L 476 191.599 484.250 192.841 L 492.500 194.083 495.115 194.632 L 497.729 195.181 502.823 190.657 L 507.917 186.133 512.289 183.571 L 516.660 181.009 522.438 179.021 L 528.215 177.034 534.608 176.379 L 541 175.724 541 174.844 L 541 173.964 535.991 163.982 L 530.982 154 529.241 154.059 L 527.500 154.117 521 156.392 M 154.655 173.829 L 153 175.657 153 178.638 L 153 181.618 154.250 183.254 L 155.500 184.891 158.043 185.502 L 160.587 186.113 163.293 183.984 L 166 181.855 166 178.927 L 166 176 164 174 L 162 172 159.155 172 L 156.310 172 154.655 173.829 M 413.223 173.557 L 411 175.113 411 178.557 L 411 182 413 184 L 415 186 417.500 186 L 420 186 422 184 L 424 182 424 178.557 L 424 175.113 421.777 173.557 L 419.555 172 417.500 172 L 415.445 172 413.223 173.557 M 97 208.614 L 94.500 209.080 85.876 211.040 L 77.252 213 45.697 213 L 14.142 213 13.111 218.250 L 12.080 223.500 11.790 227 L 11.500 230.500 40.500 230.813 L 69.500 231.126 86.131 229.409 L 102.763 227.693 109.131 228.937 L 115.500 230.181 120.488 232.316 L 125.476 234.451 130.988 238.968 L 136.500 243.484 148.254 243.848 L 160.008 244.211 161.559 243.616 L 163.110 243.020 160.111 238.661 L 157.111 234.302 149.703 227.401 L 142.294 220.500 135.897 216.724 L 129.500 212.947 123.265 211.011 L 117.029 209.074 108.265 208.611 L 99.500 208.148 97 208.614 M 454.519 209.002 L 449.539 209.900 443.646 212.049 L 437.753 214.197 432.627 217.207 L 427.500 220.217 422.109 224.807 L 416.717 229.396 411.394 235.850 L 406.070 242.304 406.594 243.152 L 407.118 244 419.330 244 L 431.543 244 438.336 239.048 L 445.128 234.096 450.689 232.015 L 456.250 229.935 463.559 228.798 L 470.869 227.662 480.184 228.953 L 489.500 230.244 520.764 230.727 L 552.029 231.210 554.651 230.551 L 557.274 229.893 556.667 224.092 L 556.061 218.291 555.055 215.645 L 554.050 213 524.063 213 L 494.077 213 485.289 210.934 L 476.500 208.869 468 208.486 L 459.500 208.103 454.519 209.002 M 12.696 265.250 L 13.342 268.500 14.487 273 L 15.631 277.500 284.551 277.500 L 553.471 277.500 555.099 270.500 L 556.727 263.500 556.305 262.750 L 555.882 262 283.966 262 L 12.050 262 12.696 265.250 M 23 297.366 L 23 298.731 26.668 306.063 L 30.336 313.394 39.918 323.060 L 49.500 332.725 60 337.807 L 70.500 342.889 74.024 343.513 L 77.547 344.138 79.702 337.510 L 81.857 330.882 80.679 330.510 L 79.500 330.137 74 328.605 L 68.500 327.073 63.081 323.787 L 57.663 320.500 55.634 317.747 L 53.605 314.995 54.858 313.747 L 56.112 312.500 74.091 312.779 L 92.070 313.059 98.641 311.029 L 105.211 309 108.516 309 L 111.822 309 118.161 310.987 L 124.500 312.974 284.035 312.987 L 443.569 313 449.260 311 L 454.950 309 459.725 309.033 L 464.500 309.065 470 311 L 475.500 312.935 494.691 312.967 L 513.882 313 514.475 313.959 L 515.068 314.919 513.784 317.013 L 512.500 319.107 507.400 322.507 L 502.299 325.908 494.900 328.400 L 487.500 330.892 487.536 331.696 L 487.571 332.500 489.417 338.750 L 491.264 345 491.382 344.999 L 491.500 344.999 497 342.911 L 502.500 340.824 509.365 337.382 L 516.230 333.940 521.865 329.603 L 527.500 325.267 531.534 320.884 L 535.569 316.500 538.648 312 L 541.726 307.500 543.863 303.290 L 546 299.080 546 297.540 L 546 296 284.500 296 L 23 296 23 297.366 M 4.026 301.843 L 4 303.186 6.031 313.153 L 8.062 323.120 10.548 329.724 L 13.034 336.328 18.529 344.586 L 24.023 352.844 30.733 358.993 L 37.443 365.141 44.331 369.720 L 51.218 374.299 58.649 377.184 L 66.079 380.069 66.899 379.563 L 67.718 379.056 68.345 373.725 L 68.971 368.394 69.588 365.309 L 70.205 362.223 66.353 360.987 L 62.500 359.751 53 354.905 L 43.500 350.059 35.251 343.528 L 27.003 336.997 20.431 328.749 L 13.859 320.500 8.955 310.500 L 4.052 300.500 4.026 301.843 M 561.966 304.750 L 560.777 308.500 557.225 315 L 553.672 321.500 549.456 327 L 545.241 332.500 539.370 338.026 L 533.500 343.553 528.500 347.156 L 523.500 350.759 516.500 354.212 L 509.500 357.665 503.696 359.971 L 497.892 362.276 498.470 363.783 L 499.048 365.289 500.047 372.335 L 501.047 379.380 501.499 379.833 L 501.952 380.285 508.226 378.048 L 514.500 375.811 521.256 371.857 L 528.012 367.903 534.032 362.894 L 540.052 357.884 545.610 351.192 L 551.169 344.500 554.578 337.788 L 557.987 331.077 560.388 322.788 L 562.789 314.500 563.511 307.750 L 564.233 301 563.694 301 L 563.155 301 561.966 304.750 M 457.298 326.765 L 455.096 327.127 452.176 330.452 L 449.257 333.777 448.552 340.360 L 447.847 346.943 448.388 347.819 L 448.929 348.694 454.781 345.794 L 460.632 342.893 466.316 342.307 L 472 341.720 472 340.320 L 472 338.920 470.106 335.210 L 468.213 331.500 466.355 329.820 L 464.496 328.139 461.998 327.271 L 459.500 326.404 457.298 326.765 M 102.509 329.171 L 99.749 331.343 97.896 335.421 L 96.044 339.500 96.022 340.750 L 96 342 99.841 342 L 103.682 342 108.269 343.380 L 112.855 344.761 115.832 346.880 L 118.809 349 119.404 349 L 120 349 120 342.968 L 120 336.936 118.606 333.599 L 117.211 330.261 114.883 328.631 L 112.555 327 108.912 327 L 105.270 327 102.509 329.171 M 138 331 L 138 332 140.435 332 L 142.870 332 145.685 333.056 L 148.500 334.112 152.246 336.689 L 155.993 339.267 158.974 344.113 L 161.956 348.959 164.728 348.411 L 167.500 347.863 183.986 349.931 L 200.473 352 214.986 351.995 L 229.500 351.990 247.532 349.081 L 265.563 346.171 277.032 345.486 L 288.500 344.800 300.500 345.937 L 312.500 347.074 326.811 349.537 L 341.123 352 355.962 352 L 370.801 352 384.651 349.920 L 398.500 347.840 402.745 348.296 L 406.989 348.753 409.058 345.406 L 411.127 342.058 415.727 338.010 L 420.326 333.961 425.663 332.410 L 431 330.858 431 330.429 L 431 330 284.500 330 L 138 330 138 331 M 136.619 348.807 L 136.101 349.646 135.072 356.031 L 134.044 362.416 135.180 366.208 L 136.317 370 137.158 370 L 138 370 138 369.114 L 138 368.228 142.099 362.090 L 146.198 355.951 144.718 353.726 L 143.237 351.500 140.187 349.734 L 137.138 347.968 136.619 348.807 M 427.880 350.007 L 426.260 350.954 424.595 353.495 L 422.930 356.037 425.888 360.337 L 428.846 364.636 430.255 368.068 L 431.664 371.500 432.915 367.732 L 434.167 363.963 433.466 356.482 L 432.765 349 431.133 349.030 L 429.500 349.061 427.880 350.007 M 465.634 360.070 L 462.767 360.889 458.914 363.559 L 455.061 366.230 452.115 370.865 L 449.169 375.500 445.966 386 L 442.762 396.500 439.164 403.428 L 435.566 410.355 430.188 416.164 L 424.810 421.973 417.655 426.735 L 410.500 431.496 394.626 438.277 L 378.753 445.057 373.397 448.612 L 368.042 452.167 361.271 459.426 L 354.500 466.685 349.792 475.633 L 345.085 484.581 341.474 495.372 L 337.863 506.163 334.429 520.831 L 330.995 535.500 329.559 544 L 328.122 552.500 327.444 560.250 L 326.765 568 329.133 567.992 L 331.500 567.984 343.478 565.492 L 355.455 563 355.728 563 L 356 563 356 561.188 L 356 559.377 358.050 551.550 L 360.100 543.723 363.465 535.378 L 366.830 527.034 371.539 519.267 L 376.248 511.500 382.706 503.838 L 389.164 496.176 395.332 490.931 L 401.500 485.685 408 481.466 L 414.500 477.246 425 471.460 L 435.500 465.674 442.500 461.165 L 449.500 456.657 459.500 446.522 L 469.500 436.386 472.923 430.609 L 476.347 424.831 479.098 417.055 L 481.850 409.280 483.034 401.180 L 484.218 393.080 483.818 381.790 L 483.417 370.500 481.724 367.329 L 480.030 364.158 477.265 362.227 L 474.500 360.297 471.500 359.774 L 468.500 359.252 465.634 360.070 M 91.420 361.885 L 88.341 363.763 86.920 367.132 L 85.500 370.500 85.552 387.500 L 85.604 404.500 87.815 412.309 L 90.026 420.119 92.633 425.309 L 95.239 430.500 99.525 436.547 L 103.812 442.595 110.394 448.752 L 116.976 454.909 123.090 459.061 L 129.204 463.213 142.049 470.565 L 154.893 477.917 163.290 483.448 L 171.688 488.978 179.453 496.739 L 187.218 504.500 193.635 514.135 L 200.053 523.769 203.683 532.135 L 207.313 540.500 210.446 551.428 L 213.580 562.356 223.540 564.552 L 233.500 566.749 237.250 567.420 L 241 568.091 241 562.576 L 241 557.061 239.404 546.315 L 237.807 535.570 233.961 520.035 L 230.115 504.500 227.524 496.500 L 224.932 488.500 219.765 478 L 214.599 467.500 205.549 458.438 L 196.500 449.377 189.500 445.772 L 182.500 442.166 174.500 438.999 L 166.500 435.831 158.805 431.833 L 151.109 427.834 144.305 422.154 L 137.500 416.473 132.407 408.897 L 127.314 401.320 123.132 388.294 L 118.950 375.267 115.918 370.690 L 112.887 366.113 108.272 363.057 L 103.657 360 99.079 360.004 L 94.500 360.007 91.420 361.885 M 266.500 363.672 L 263.500 364.045 245 367.140 L 226.500 370.236 209.243 369.773 L 191.985 369.310 194.167 372.905 L 196.348 376.500 199.179 381.620 L 202.009 386.740 205.755 387.359 L 209.500 387.978 219.060 387.989 L 228.620 388 246.560 384.839 L 264.500 381.677 284.500 381.632 L 304.500 381.586 322.318 384.793 L 340.136 388 349.818 387.989 L 359.500 387.978 363.053 387.390 L 366.605 386.802 369.272 382.151 L 371.938 377.500 374.410 373.444 L 376.882 369.388 359.691 369.798 L 342.500 370.209 321.111 366.604 L 299.722 363 284.611 363.150 L 269.500 363.300 266.500 363.672 M 159.698 368.023 L 157.127 370.046 154.959 375.773 L 152.792 381.500 153.286 389.027 L 153.780 396.554 156.108 401.527 L 158.436 406.500 163.010 411 L 167.584 415.500 172.042 417.685 L 176.500 419.870 187.816 424.853 L 199.132 429.836 204.684 433.168 L 210.237 436.500 217.245 443.409 L 224.252 450.318 229.688 458.657 L 235.124 466.997 237.923 473.249 L 240.722 479.500 244.031 489 L 247.339 498.500 248.391 499.869 L 249.443 501.238 255.777 500.730 L 262.112 500.221 262.734 499.599 L 263.357 498.976 259.126 486.152 L 254.895 473.327 249.052 461.274 L 243.210 449.220 238.228 441.860 L 233.247 434.500 227.374 428.932 L 221.500 423.365 208.373 414.735 L 195.246 406.104 190.601 400.802 L 185.955 395.500 181.358 386.500 L 176.761 377.500 173.879 372.910 L 170.996 368.319 168.451 367.160 L 165.906 366 164.088 366 L 162.270 366 159.698 368.023 M 399.325 368.068 L 396.150 370.101 391.421 379.301 L 386.692 388.500 383.350 393.763 L 380.009 399.025 375.254 403.586 L 370.500 408.146 360 414.707 L 349.500 421.268 344.296 425.672 L 339.091 430.077 333.194 437.903 L 327.297 445.729 321.115 457.854 L 314.934 469.979 310.480 483.239 L 306.026 496.500 306.013 498.105 L 306 499.711 312.636 500.330 L 319.272 500.950 320.057 500.465 L 320.842 499.980 324.049 490.240 L 327.255 480.500 332.285 470.625 L 337.314 460.749 342.991 453.125 L 348.668 445.500 353.338 441.225 L 358.009 436.951 363.963 433.103 L 369.917 429.254 379.708 425.049 L 389.500 420.843 395.511 417.977 L 401.521 415.110 406.216 410.415 L 410.911 405.720 413.166 401.110 L 415.421 396.500 415.437 387 L 415.453 377.500 413.630 374.113 L 411.807 370.725 409.257 368.363 L 406.708 366 404.604 366.017 L 402.500 366.034 399.325 368.068 M 538 383.194 L 532.500 387.188 525 390.976 L 517.500 394.763 509.500 397.571 L 501.500 400.378 500.765 401.439 L 500.031 402.500 500.015 405.568 L 500 408.635 498.056 416.040 L 496.112 423.445 496.529 423.863 L 496.947 424.280 505.132 419.390 L 513.317 414.500 523.547 404.731 L 533.777 394.961 538.992 387.417 L 544.207 379.874 543.854 379.536 L 543.500 379.199 538 383.194 M 26.004 380.713 L 26.009 381.500 28.754 385.627 L 31.500 389.755 37.619 397.202 L 43.738 404.649 51.982 411.246 L 60.227 417.842 66.003 420.921 L 71.780 424 72.346 424 L 72.911 424 71.408 419.750 L 69.905 415.500 68.647 408.074 L 67.389 400.648 60.945 398.468 L 54.500 396.288 46 392.009 L 37.500 387.730 31.750 383.828 L 26 379.925 26.004 380.713 M 256.500 401.399 L 243.500 403.762 236.726 405.058 L 229.952 406.355 230.226 406.927 L 230.500 407.500 238.675 415.351 L 246.851 423.202 255.783 421.105 L 264.716 419.007 274.761 417.977 L 284.806 416.946 294.744 417.881 L 304.681 418.816 312.870 421.025 L 321.058 423.235 326.279 418.350 L 331.500 413.465 335.431 410.271 L 339.363 407.076 337.931 406.592 L 336.500 406.108 321 402.939 L 305.500 399.770 287.500 399.403 L 269.500 399.036 256.500 401.399 M 536.440 417.095 L 531.500 422.145 522.500 428.970 L 513.500 435.795 504 441.222 L 494.500 446.649 487.366 450.387 L 480.232 454.126 473.866 459.519 L 467.500 464.913 460.500 470.359 L 453.500 475.805 436.500 485.508 L 419.500 495.212 412.305 500.670 L 405.110 506.128 399.236 512.407 L 393.363 518.685 388.561 525.908 L 383.760 533.130 380.353 541.209 L 376.945 549.288 376.079 553.144 L 375.213 557 375.547 557 L 375.881 557 383.190 554.394 L 390.500 551.787 398.662 548.313 L 406.824 544.838 410.562 539.169 L 414.300 533.500 419.237 527.764 L 424.174 522.027 431.837 515.664 L 439.500 509.301 451.500 500.709 L 463.500 492.118 468.086 488.309 L 472.671 484.500 482.213 476.500 L 491.756 468.500 504.838 460.629 L 517.919 452.757 523.329 444.627 L 528.739 436.497 535.490 424.702 L 542.241 412.908 541.810 412.477 L 541.379 412.046 536.440 417.095 M 32.974 419.013 L 34.272 421.500 38.305 428.500 L 42.338 435.500 48.871 445.378 L 55.404 455.255 67.952 463.434 L 80.500 471.612 92.974 482.353 L 105.447 493.093 112.474 497.796 L 119.500 502.500 129 509.599 L 138.500 516.698 146.600 525.257 L 154.700 533.816 157.562 538.339 L 160.423 542.863 163.962 544.331 L 167.500 545.799 179.868 550.948 L 192.237 556.097 192.768 555.565 L 193.300 555.033 190.152 546.293 L 187.004 537.552 182.252 529.611 L 177.500 521.669 169.046 512.739 L 160.591 503.809 154.546 499.518 L 148.500 495.226 134 486.971 L 119.500 478.716 112.500 473.895 L 105.500 469.073 96.500 461.556 L 87.500 454.038 76.625 448.335 L 65.750 442.631 55.625 435.930 L 45.500 429.229 38.588 422.877 L 31.676 416.526 32.974 419.013 M 273 435.959 L 266.500 436.787 262.250 437.932 L 258 439.077 258 439.928 L 258 440.778 261.988 447.602 L 265.975 454.426 284.348 454.463 L 302.721 454.500 306.860 447.400 L 311 440.300 311 439.730 L 311 439.160 304.007 437.570 L 297.014 435.979 288.257 435.555 L 279.500 435.131 273 435.959 M 275.750 472.642 L 274 473.147 274.019 474.323 L 274.038 475.500 276.352 483 L 278.666 490.500 284.083 490.146 L 289.500 489.792 290.055 489.458 L 290.609 489.124 292.978 481.569 L 295.348 474.014 294.591 473.257 L 293.834 472.500 285.667 472.319 L 277.500 472.138 275.750 472.642" stroke="none" fill="#f3f7f7" fill-rule="evenodd"/><path d="M 248.063 2.016 L 234.625 3.921 225.063 6.069 L 215.500 8.217 207.471 10.512 L 199.442 12.807 193.471 14.809 L 187.500 16.812 178.936 20.308 L 170.372 23.805 161.789 27.863 L 153.207 31.922 143.353 37.585 L 133.500 43.248 124 49.775 L 114.500 56.302 104.500 64.576 L 94.500 72.850 86.473 80.675 L 78.446 88.500 71.413 96.500 L 64.379 104.500 59.319 111 L 54.260 117.500 48.270 126.500 L 42.281 135.500 36.364 146 L 30.448 156.500 25.851 166.500 L 21.255 176.500 17.570 186.360 L 13.885 196.220 10.418 208.860 L 6.951 221.500 4.530 235 L 2.108 248.500 1.058 260 L 0.007 271.500 0.007 285.500 L 0.007 299.500 1.058 311 L 2.108 322.500 4.530 336 L 6.951 349.500 10.418 362.140 L 13.885 374.780 17.570 384.640 L 21.255 394.500 25.753 404.500 L 30.251 414.500 37.749 421.795 L 45.247 429.090 55.498 435.860 L 65.750 442.631 76.625 448.335 L 87.500 454.038 96.500 461.556 L 105.500 469.073 112.500 473.895 L 119.500 478.716 134 486.971 L 148.500 495.226 154.546 499.518 L 160.591 503.809 169.046 512.725 L 177.500 521.640 182.547 530.163 L 187.595 538.686 190.525 547.316 L 193.455 555.946 195.977 556.978 L 198.500 558.011 205.486 559.936 L 212.471 561.862 212.838 561.495 L 213.206 561.128 210.446 551.314 L 207.686 541.500 203.865 532.628 L 200.044 523.756 193.631 514.128 L 187.218 504.500 179.453 496.739 L 171.688 488.978 163.290 483.448 L 154.893 477.917 142.049 470.565 L 129.204 463.213 123.090 459.061 L 116.976 454.909 110.394 448.752 L 103.812 442.595 99.525 436.547 L 95.239 430.500 92.633 425.309 L 90.026 420.119 87.805 412.309 L 85.583 404.500 85.541 387 L 85.500 369.500 87.267 366.267 L 89.034 363.034 91.967 361.517 L 94.901 360 99.279 360 L 103.657 360 108.272 363.057 L 112.887 366.113 115.918 370.690 L 118.950 375.267 123.132 388.294 L 127.314 401.320 132.407 408.897 L 137.500 416.473 144.305 422.154 L 151.109 427.834 158.805 431.833 L 166.500 435.831 174.500 438.999 L 182.500 442.166 189.500 445.772 L 196.500 449.377 205.549 458.438 L 214.599 467.500 219.765 478 L 224.932 488.500 227.524 496.500 L 230.115 504.500 233.961 520.035 L 237.807 535.570 239.404 546.315 L 241 557.061 241 562.530 L 241 568 241.750 568.032 L 242.500 568.063 253 569.500 L 263.500 570.937 286 570.892 L 308.500 570.847 317.500 569.673 L 326.500 568.500 327.208 562 L 327.917 555.500 329.032 547.500 L 330.146 539.500 333.987 522.885 L 337.827 506.270 341.456 495.426 L 345.085 484.581 349.792 475.633 L 354.500 466.685 361.271 459.426 L 368.042 452.167 373.397 448.612 L 378.753 445.057 394.626 438.277 L 410.500 431.496 417.655 426.735 L 424.810 421.973 430.188 416.164 L 435.566 410.355 439.164 403.428 L 442.762 396.500 445.966 386 L 449.169 375.500 452.115 370.865 L 455.061 366.230 458.868 363.592 L 462.674 360.954 465.599 360.115 L 468.523 359.276 471.820 359.760 L 475.116 360.244 478.445 363.384 L 481.774 366.523 482.882 370.512 L 483.989 374.500 483.960 385.500 L 483.930 396.500 482.567 404 L 481.203 411.500 478.729 418.242 L 476.254 424.983 472.877 430.685 L 469.500 436.386 459.500 446.522 L 449.500 456.657 442.500 461.165 L 435.500 465.674 425 471.460 L 414.500 477.246 408 481.466 L 401.500 485.685 395.332 490.931 L 389.164 496.176 382.706 503.838 L 376.248 511.500 371.539 519.267 L 366.830 527.034 363.445 535.429 L 360.059 543.824 357.959 551.926 L 355.859 560.029 356.179 561.383 L 356.500 562.737 365 560.280 L 373.500 557.823 374.750 556.789 L 376 555.755 376.031 553.628 L 376.061 551.500 379.847 542.411 L 383.632 533.323 388.497 526.004 L 393.363 518.685 399.236 512.407 L 405.110 506.128 412.305 500.670 L 419.500 495.212 436.500 485.508 L 453.500 475.805 460.500 470.359 L 467.500 464.913 473.730 459.631 L 479.961 454.350 491.730 448.007 L 503.500 441.665 510 437.704 L 516.500 433.743 524.652 427.394 L 532.804 421.044 538.480 414.772 L 544.156 408.500 547.914 400 L 551.671 391.500 555.797 379.500 L 559.923 367.500 562.402 358 L 564.881 348.500 566.906 337.500 L 568.931 326.500 570.562 311.629 L 572.193 296.758 571.706 279.629 L 571.218 262.500 569.644 250.500 L 568.069 238.500 566.108 229 L 564.146 219.500 562.030 211.500 L 559.915 203.500 556.357 193 L 552.799 182.500 548.283 172.039 L 543.767 161.577 539.231 153.039 L 534.694 144.500 529.148 135.500 L 523.602 126.500 518.660 119.500 L 513.717 112.500 506.740 104 L 499.763 95.500 485.568 81.448 L 471.374 67.396 459.437 58.424 L 447.500 49.451 436.500 42.549 L 425.500 35.648 409.500 27.912 L 393.500 20.176 380.361 15.653 L 367.223 11.130 354.786 8.070 L 342.349 5.011 329.425 2.882 L 316.500 0.752 289 0.431 L 261.500 0.110 248.063 2.016 M 274.046 21.445 L 272.846 22.890 273.173 25.093 L 273.500 27.296 275.250 28.393 L 277 29.490 278.750 28.393 L 280.500 27.296 280.827 25.093 L 281.154 22.890 279.954 21.445 L 278.755 20 277 20 L 275.245 20 274.046 21.445 M 318.635 28.073 L 316 30.145 316 32.850 L 316 35.555 317.557 37.777 L 319.113 40 321.834 40 L 324.555 40 326.777 38.443 L 329 36.887 329 33.516 L 329 30.145 326.365 28.073 L 323.730 26 322.500 26 L 321.270 26 318.635 28.073 M 231.635 50.073 L 229 52.145 229 55.073 L 229 58 231 60 L 233 62 235.389 62 L 237.778 62 240.014 60.190 L 242.250 58.379 242.250 55.637 L 242.250 52.895 239.951 50.448 L 237.651 48 235.961 48 L 234.270 48 231.635 50.073 M 186.180 51.642 L 185.262 53.284 185.739 55.109 L 186.216 56.934 188.156 57.549 L 190.096 58.165 191.548 56.960 L 193 55.755 193 54.078 L 193 52.400 191.800 51.200 L 190.600 50 188.850 50 L 187.099 50 186.180 51.642 M 403.400 53.765 L 402.299 54.500 401.150 56.684 L 400 58.869 400 60.934 L 400 63 402 65 L 404 67 406.961 67 L 409.922 67 411.961 64.811 L 414 62.623 414 59.884 L 414 57.145 411.365 55.073 L 408.730 53 406.615 53.015 L 404.500 53.031 403.400 53.765 M 153.557 57.223 L 152 59.445 152 61.612 L 152 63.778 153.844 66.056 L 155.688 68.333 159 68.333 L 162.312 68.333 164.156 66.056 L 166 63.778 166 62.024 L 166 60.270 163.927 57.635 L 161.855 55 158.484 55 L 155.113 55 153.557 57.223 M 366.071 61.868 L 365.007 63.855 365.581 65.350 L 366.155 66.845 367.650 67.419 L 369.145 67.993 371.132 66.929 L 373.120 65.865 372.810 63.183 L 372.500 60.500 369.817 60.190 L 367.135 59.880 366.071 61.868 M 274.557 77.223 L 273 79.445 273 81.723 L 273 84 275 86 L 277 88 279.500 88 L 282 88 284 86 L 286 84 286 81.057 L 286 78.113 283.777 76.557 L 281.555 75 278.834 75 L 276.113 75 274.557 77.223 M 324.557 91.223 L 323 93.445 323 95.723 L 323 98 325 100 L 327 102 328.865 102 L 330.730 102 333.365 99.927 L 336 97.855 336 95.427 L 336 93 334 91 L 332 89 329.057 89 L 326.113 89 324.557 91.223 M 113.537 93.250 L 113.137 94.500 111.497 100.500 L 109.857 106.500 107.420 110.241 L 104.983 113.983 101.241 116.420 L 97.500 118.856 92 120.573 L 86.500 122.289 85.661 123.033 L 84.822 123.778 91.661 125.996 L 98.500 128.214 102.322 130.669 L 106.143 133.123 109.070 139.312 L 111.997 145.500 112.627 150.250 L 113.258 155 113.923 155 L 114.588 155 117.428 146.250 L 120.269 137.500 124.385 133.425 L 128.500 129.349 136 127.024 L 143.500 124.699 144.338 123.961 L 145.177 123.223 136.838 120.475 L 128.500 117.727 124.290 113.388 L 120.080 109.048 117.422 100.524 L 114.764 92 114.351 92 L 113.937 92 113.537 93.250 M 452.493 98.218 L 450.650 104.500 448.916 108 L 447.183 111.500 444.342 114.136 L 441.500 116.772 438.500 118.250 L 435.500 119.729 430.160 121.475 L 424.820 123.220 425.660 123.980 L 426.500 124.740 433.791 126.912 L 441.083 129.083 444.998 132.998 L 448.913 136.913 451.846 146.207 L 454.779 155.500 455.340 154 L 455.901 152.500 457.052 148.017 L 458.203 143.533 460.502 139.017 L 462.802 134.500 465.352 132.122 L 467.902 129.743 475.701 126.991 L 483.500 124.238 483.064 123.369 L 482.628 122.500 475.503 119.749 L 468.378 116.998 465.117 113.810 L 461.856 110.622 460.525 108.048 L 459.194 105.474 457.486 99.487 L 455.779 93.500 455.057 92.718 L 454.336 91.936 452.493 98.218 M 232.607 95.582 L 232 97.164 232 98.547 L 232 99.930 233.928 100.961 L 235.855 101.993 237.389 101.404 L 238.924 100.815 239.545 98.860 L 240.165 96.904 238.960 95.452 L 237.755 94 235.485 94 L 233.214 94 232.607 95.582 M 183 102.709 L 181.500 103.261 179.750 104.785 L 178 106.310 178 109.084 L 178 111.857 179.570 113.427 L 181.140 114.997 183.577 115.609 L 186.015 116.220 188.507 114.587 L 191 112.954 190.985 109.727 L 190.969 106.500 190.235 105.400 L 189.500 104.299 187.316 103.150 L 185.131 102 184.816 102.079 L 184.500 102.158 183 102.709 M 370.174 108.314 L 368 110.629 368 112.860 L 368 115.091 370.455 117.545 L 372.909 120 375 120 L 377.091 120 379.545 117.545 L 382 115.091 382 113 L 382 110.909 379.545 108.455 L 377.091 106 374.720 106 L 372.349 106 370.174 108.314 M 168.667 131.667 L 168 132.333 168 134.544 L 168 136.755 169.436 137.947 L 170.872 139.139 172.936 138.034 L 175 136.930 175 135.165 L 175 133.400 173.800 132.200 L 172.600 131 170.967 131 L 169.333 131 168.667 131.667 M 399.384 135.442 L 398.831 136.883 399.174 138.692 L 399.517 140.500 402.224 140.813 L 404.930 141.126 405.559 138.620 L 406.188 136.114 405.535 135.057 L 404.882 134 402.410 134 L 399.937 134 399.384 135.442 M 275 138.060 L 268.500 138.927 260.500 141.448 L 252.500 143.970 247.500 146.918 L 242.500 149.867 236.778 154.426 L 231.056 158.985 225.751 165.417 L 220.446 171.849 216.745 179.334 L 213.044 186.819 211.099 194.159 L 209.155 201.500 208.535 208 L 207.915 214.500 208.989 221.998 L 210.063 229.497 212.074 236.248 L 214.085 243 284.017 243 L 353.949 243 355.394 240.206 L 356.839 237.411 358.579 230.956 L 360.319 224.500 360.362 213.500 L 360.404 202.500 358.701 196 L 356.998 189.500 352.565 180.500 L 348.131 171.500 342.505 164.704 L 336.879 157.907 330.690 153.345 L 324.500 148.783 317.636 145.321 L 310.771 141.860 303.636 140.053 L 296.500 138.247 289 137.720 L 281.500 137.193 275 138.060 M 37.309 155.174 L 36.245 156.500 32.123 164.335 L 28 172.170 28 173.863 L 28 175.557 36.250 176.719 L 44.500 177.881 49.574 179.427 L 54.648 180.973 60.574 184.952 L 66.500 188.931 70.149 192.059 L 73.798 195.186 84.399 193.447 L 95 191.707 95 190.776 L 95 189.845 84.750 179.567 L 74.500 169.290 67.284 165.051 L 60.068 160.812 52.784 157.992 L 45.500 155.171 41.936 154.509 L 38.372 153.847 37.309 155.174 M 521 156.392 L 514.500 158.667 509 161.453 L 503.500 164.240 497 169.053 L 490.500 173.867 485.412 179.184 L 480.324 184.500 478.162 187.385 L 476 190.270 476 190.935 L 476 191.599 484.250 192.841 L 492.500 194.083 495.115 194.632 L 497.729 195.181 502.823 190.657 L 507.917 186.133 512.289 183.571 L 516.660 181.009 522.438 179.021 L 528.215 177.034 534.608 176.379 L 541 175.724 541 174.844 L 541 173.964 535.991 163.982 L 530.982 154 529.241 154.059 L 527.500 154.117 521 156.392 M 154.655 173.829 L 153 175.657 153 178.638 L 153 181.618 154.250 183.254 L 155.500 184.891 158.043 185.502 L 160.587 186.113 163.293 183.984 L 166 181.855 166 178.927 L 166 176 164 174 L 162 172 159.155 172 L 156.310 172 154.655 173.829 M 413.223 173.557 L 411 175.113 411 178.557 L 411 182 413 184 L 415 186 417.500 186 L 420 186 422 184 L 424 182 424 178.557 L 424 175.113 421.777 173.557 L 419.555 172 417.500 172 L 415.445 172 413.223 173.557 M 97 208.614 L 94.500 209.080 85.876 211.040 L 77.252 213 45.697 213 L 14.142 213 13.111 218.250 L 12.080 223.500 11.790 227 L 11.500 230.500 40.500 230.813 L 69.500 231.126 86.131 229.409 L 102.763 227.693 109.131 228.937 L 115.500 230.181 120.488 232.316 L 125.476 234.451 130.988 238.968 L 136.500 243.484 148.254 243.848 L 160.008 244.211 161.559 243.616 L 163.110 243.020 160.111 238.661 L 157.111 234.302 149.703 227.401 L 142.294 220.500 135.897 216.724 L 129.500 212.947 123.265 211.011 L 117.029 209.074 108.265 208.611 L 99.500 208.148 97 208.614 M 454.519 209.002 L 449.539 209.900 443.646 212.049 L 437.753 214.197 432.627 217.207 L 427.500 220.217 422.109 224.807 L 416.717 229.396 411.394 235.850 L 406.070 242.304 406.594 243.152 L 407.118 244 419.330 244 L 431.543 244 438.336 239.048 L 445.128 234.096 450.689 232.015 L 456.250 229.935 463.559 228.798 L 470.869 227.662 480.184 228.953 L 489.500 230.244 520.764 230.727 L 552.029 231.210 554.651 230.551 L 557.274 229.893 556.667 224.092 L 556.061 218.291 555.055 215.645 L 554.050 213 524.063 213 L 494.077 213 485.289 210.934 L 476.500 208.869 468 208.486 L 459.500 208.103 454.519 209.002 M 12.696 265.250 L 13.342 268.500 14.487 273 L 15.631 277.500 284.551 277.500 L 553.471 277.500 555.099 270.500 L 556.727 263.500 556.305 262.750 L 555.882 262 283.966 262 L 12.050 262 12.696 265.250 M 0.417 285.500 L 0.419 304.500 0.746 294.698 L 1.074 284.896 0.744 275.698 L 0.415 266.500 0.417 285.500 M 23 297.366 L 23 298.731 26.668 306.063 L 30.336 313.394 39.918 323.060 L 49.500 332.725 60 337.807 L 70.500 342.889 74.024 343.513 L 77.547 344.138 79.702 337.510 L 81.857 330.882 80.679 330.510 L 79.500 330.137 74 328.605 L 68.500 327.073 63.081 323.787 L 57.663 320.500 55.634 317.747 L 53.605 314.995 54.858 313.747 L 56.112 312.500 74.091 312.779 L 92.070 313.059 98.641 311.029 L 105.211 309 108.516 309 L 111.822 309 118.161 310.987 L 124.500 312.974 284.035 312.987 L 443.569 313 449.260 311 L 454.950 309 459.725 309.033 L 464.500 309.065 470 311 L 475.500 312.935 494.691 312.967 L 513.882 313 514.475 313.959 L 515.068 314.919 513.784 317.013 L 512.500 319.107 507.400 322.507 L 502.299 325.908 494.900 328.400 L 487.500 330.892 487.536 331.696 L 487.571 332.500 489.417 338.750 L 491.264 345 491.382 344.999 L 491.500 344.999 497 342.911 L 502.500 340.824 509.365 337.382 L 516.230 333.940 521.865 329.603 L 527.500 325.267 531.534 320.884 L 535.569 316.500 538.648 312 L 541.726 307.500 543.863 303.290 L 546 299.080 546 297.540 L 546 296 284.500 296 L 23 296 23 297.366 M 4.026 301.843 L 4 303.186 6.031 313.153 L 8.062 323.120 10.548 329.724 L 13.034 336.328 18.529 344.586 L 24.023 352.844 30.733 358.993 L 37.443 365.141 44.331 369.720 L 51.218 374.299 58.649 377.184 L 66.079 380.069 66.899 379.563 L 67.718 379.056 68.345 373.725 L 68.971 368.394 69.588 365.309 L 70.205 362.223 66.353 360.987 L 62.500 359.751 53 354.905 L 43.500 350.059 35.251 343.528 L 27.003 336.997 20.431 328.749 L 13.859 320.500 8.955 310.500 L 4.052 300.500 4.026 301.843 M 561.966 304.750 L 560.777 308.500 557.225 315 L 553.672 321.500 549.456 327 L 545.241 332.500 539.370 338.026 L 533.500 343.553 528.500 347.156 L 523.500 350.759 516.500 354.212 L 509.500 357.665 503.696 359.971 L 497.892 362.276 498.470 363.783 L 499.048 365.289 500.047 372.335 L 501.047 379.380 501.499 379.833 L 501.952 380.285 508.226 378.048 L 514.500 375.811 521.256 371.857 L 528.012 367.903 534.032 362.894 L 540.052 357.884 545.610 351.192 L 551.169 344.500 554.578 337.788 L 557.987 331.077 560.388 322.788 L 562.789 314.500 563.511 307.750 L 564.233 301 563.694 301 L 563.155 301 561.966 304.750 M 457.298 326.765 L 455.096 327.127 452.176 330.452 L 449.257 333.777 448.552 340.360 L 447.847 346.943 448.388 347.819 L 448.929 348.694 454.781 345.794 L 460.632 342.893 466.316 342.307 L 472 341.720 472 340.320 L 472 338.920 470.106 335.210 L 468.213 331.500 466.355 329.820 L 464.496 328.139 461.998 327.271 L 459.500 326.404 457.298 326.765 M 102.509 329.171 L 99.749 331.343 97.896 335.421 L 96.044 339.500 96.022 340.750 L 96 342 99.841 342 L 103.682 342 108.269 343.380 L 112.855 344.761 115.832 346.880 L 118.809 349 119.404 349 L 120 349 120 342.968 L 120 336.936 118.606 333.599 L 117.211 330.261 114.883 328.631 L 112.555 327 108.912 327 L 105.270 327 102.509 329.171 M 138 331 L 138 332 140.435 332 L 142.870 332 145.685 333.056 L 148.500 334.112 152.246 336.689 L 155.993 339.267 158.974 344.113 L 161.956 348.959 164.728 348.411 L 167.500 347.863 183.986 349.931 L 200.473 352 214.986 351.995 L 229.500 351.990 247.532 349.081 L 265.563 346.171 277.032 345.486 L 288.500 344.800 300.500 345.937 L 312.500 347.074 326.811 349.537 L 341.123 352 355.962 352 L 370.801 352 384.651 349.920 L 398.500 347.840 402.745 348.296 L 406.989 348.753 409.058 345.406 L 411.127 342.058 415.727 338.010 L 420.326 333.961 425.663 332.410 L 431 330.858 431 330.429 L 431 330 284.500 330 L 138 330 138 331 M 136.619 348.807 L 136.101 349.646 135.072 356.031 L 134.044 362.416 135.180 366.208 L 136.317 370 137.158 370 L 138 370 138 369.114 L 138 368.228 142.099 362.090 L 146.198 355.951 144.718 353.726 L 143.237 351.500 140.187 349.734 L 137.138 347.968 136.619 348.807 M 427.880 350.007 L 426.260 350.954 424.595 353.495 L 422.930 356.037 425.888 360.337 L 428.846 364.636 430.255 368.068 L 431.664 371.500 432.915 367.732 L 434.167 363.963 433.466 356.482 L 432.765 349 431.133 349.030 L 429.500 349.061 427.880 350.007 M 266.500 363.672 L 263.500 364.045 245 367.140 L 226.500 370.236 209.243 369.773 L 191.985 369.310 194.167 372.905 L 196.348 376.500 199.179 381.620 L 202.009 386.740 205.755 387.359 L 209.500 387.978 219.060 387.989 L 228.620 388 246.560 384.839 L 264.500 381.677 284.500 381.632 L 304.500 381.586 322.318 384.793 L 340.136 388 349.818 387.989 L 359.500 387.978 363.053 387.390 L 366.605 386.802 369.272 382.151 L 371.938 377.500 374.410 373.444 L 376.882 369.388 359.691 369.798 L 342.500 370.209 321.111 366.604 L 299.722 363 284.611 363.150 L 269.500 363.300 266.500 363.672 M 159.698 368.023 L 157.127 370.046 154.959 375.773 L 152.792 381.500 153.286 389.027 L 153.780 396.554 156.108 401.527 L 158.436 406.500 163.010 411 L 167.584 415.500 172.042 417.685 L 176.500 419.870 187.816 424.853 L 199.132 429.836 204.684 433.168 L 210.237 436.500 217.245 443.409 L 224.252 450.318 229.688 458.657 L 235.124 466.997 237.923 473.249 L 240.722 479.500 244.031 489 L 247.339 498.500 248.391 499.869 L 249.443 501.238 255.777 500.730 L 262.112 500.221 262.734 499.599 L 263.357 498.976 259.126 486.152 L 254.895 473.327 249.052 461.274 L 243.210 449.220 238.228 441.860 L 233.247 434.500 227.374 428.932 L 221.500 423.365 208.373 414.735 L 195.246 406.104 190.601 400.802 L 185.955 395.500 181.358 386.500 L 176.761 377.500 173.879 372.910 L 170.996 368.319 168.451 367.160 L 165.906 366 164.088 366 L 162.270 366 159.698 368.023 M 399.325 368.068 L 396.150 370.101 391.421 379.301 L 386.692 388.500 383.350 393.763 L 380.009 399.025 375.254 403.586 L 370.500 408.146 360 414.707 L 349.500 421.268 344.296 425.672 L 339.091 430.077 333.194 437.903 L 327.297 445.729 321.115 457.854 L 314.934 469.979 310.480 483.239 L 306.026 496.500 306.013 498.105 L 306 499.711 312.636 500.330 L 319.272 500.950 320.057 500.465 L 320.842 499.980 324.049 490.240 L 327.255 480.500 332.285 470.625 L 337.314 460.749 342.991 453.125 L 348.668 445.500 353.338 441.225 L 358.009 436.951 363.963 433.103 L 369.917 429.254 379.708 425.049 L 389.500 420.843 395.511 417.977 L 401.521 415.110 406.216 410.415 L 410.911 405.720 413.166 401.110 L 415.421 396.500 415.437 387 L 415.453 377.500 413.630 374.113 L 411.807 370.725 409.257 368.363 L 406.708 366 404.604 366.017 L 402.500 366.034 399.325 368.068 M 538 383.194 L 532.500 387.188 525 390.976 L 517.500 394.763 509.500 397.571 L 501.500 400.378 500.765 401.439 L 500.031 402.500 500.015 405.568 L 500 408.635 498.056 416.040 L 496.112 423.445 496.529 423.863 L 496.947 424.280 505.132 419.390 L 513.317 414.500 523.547 404.731 L 533.777 394.961 538.992 387.417 L 544.207 379.874 543.854 379.536 L 543.500 379.199 538 383.194 M 26.004 380.713 L 26.009 381.500 28.754 385.627 L 31.500 389.755 37.619 397.202 L 43.738 404.649 51.982 411.246 L 60.227 417.842 66.003 420.921 L 71.780 424 72.346 424 L 72.911 424 71.408 419.750 L 69.905 415.500 68.647 408.074 L 67.389 400.648 60.945 398.468 L 54.500 396.288 46 392.009 L 37.500 387.730 31.750 383.828 L 26 379.925 26.004 380.713 M 256.500 401.399 L 243.500 403.762 236.726 405.058 L 229.952 406.355 230.226 406.927 L 230.500 407.500 238.675 415.351 L 246.851 423.202 255.783 421.105 L 264.716 419.007 274.761 417.977 L 284.806 416.946 294.744 417.881 L 304.681 418.816 312.870 421.025 L 321.058 423.235 326.279 418.350 L 331.500 413.465 335.431 410.271 L 339.363 407.076 337.931 406.592 L 336.500 406.108 321 402.939 L 305.500 399.770 287.500 399.403 L 269.500 399.036 256.500 401.399 M 273 435.959 L 266.500 436.787 262.250 437.932 L 258 439.077 258 439.928 L 258 440.778 261.988 447.602 L 265.975 454.426 284.348 454.463 L 302.721 454.500 306.860 447.400 L 311 440.300 311 439.730 L 311 439.160 304.007 437.570 L 297.014 435.979 288.257 435.555 L 279.500 435.131 273 435.959 M 503.610 461.342 L 491.720 468.641 483.610 475.338 L 475.500 482.034 469.500 487.098 L 463.500 492.161 451.500 500.731 L 439.500 509.301 431.837 515.664 L 424.174 522.027 419.260 527.764 L 414.346 533.500 411.173 538.180 L 408 542.860 408 543.439 L 408 544.018 417.750 539.106 L 427.500 534.194 439.210 526.686 L 450.919 519.178 461.177 511.339 L 471.434 503.500 485.571 489.500 L 499.707 475.500 504.657 469.500 L 509.607 463.500 513.424 458.750 L 517.241 454 516.370 454.021 L 515.500 454.042 503.610 461.342 M 60.642 461.750 L 64.419 466.500 71.432 474.500 L 78.446 482.500 86.473 490.325 L 94.500 498.150 104.500 506.411 L 114.500 514.672 122.500 520.218 L 130.500 525.764 137 529.712 L 143.500 533.659 151.290 537.830 L 159.081 542 159.588 542 L 160.096 542 156.849 537.281 L 153.603 532.562 146.051 524.641 L 138.500 516.720 129 509.610 L 119.500 502.500 112.474 497.796 L 105.447 493.093 92.974 482.353 L 80.500 471.613 69.297 464.307 L 58.095 457 57.480 457 L 56.866 457 60.642 461.750 M 275.750 472.642 L 274 473.147 274.019 474.323 L 274.038 475.500 276.352 483 L 278.666 490.500 284.083 490.146 L 289.500 489.792 290.055 489.458 L 290.609 489.124 292.978 481.569 L 295.348 474.014 294.591 473.257 L 293.834 472.500 285.667 472.319 L 277.500 472.138 275.750 472.642" stroke="none" fill="#0b4656" fill-rule="evenodd"/></svg>